<?xml version="1.0" encoding="UTF-8" standalone="no"?>
<svg width="226px" height="308px" viewBox="0 0 226 308" version="1.1" xmlns="http://www.w3.org/2000/svg" xmlns:xlink="http://www.w3.org/1999/xlink">
    <!-- Generator: Sketch 3.6.1 (26313) - http://www.bohemiancoding.com/sketch -->
    <title>1</title>
    <desc>Created with Sketch.</desc>
    <defs></defs>
    <g id="Page-1" stroke="none" stroke-width="1" fill="none" fill-rule="evenodd">
        <g id="Main" transform="translate(-487.000000, -38.000000)">
            <g id="1" transform="translate(487.000000, 38.000000)">
                <path d="M69.4870236,15.7613071 C71.6033071,14.1740945 72.9259843,11.6610079 72.9259843,8.88338583 C72.9259843,4.12174803 69.0902205,0.285984252 64.3285827,0.285984252 C59.5669449,0.285984252 55.7311811,4.12174803 55.7311811,8.88338583 C55.7311811,13.3804882 59.1701417,17.0839843 63.6672441,17.4807874 L78.7457638,73.9591024 L93.1629449,72.6364252 L69.4870236,15.7613071 L69.4870236,15.7613071 Z" id="Shape" fill="#000000"></path>
                <path d="M162.206693,0.285984252 C157.445055,0.285984252 153.609291,4.12174803 153.609291,8.88338583 C153.609291,11.6610079 154.931969,14.1740945 157.048252,15.7613071 L133.372331,72.6364252 L147.789512,73.9591024 L162.868031,17.4807874 C167.232866,17.0839843 170.804094,13.3804882 170.804094,8.88338583 C170.804094,4.12174803 166.968331,0.285984252 162.206693,0.285984252 L162.206693,0.285984252 Z" id="Shape" fill="#000000"></path>
                <ellipse id="Oval" fill="#FFEA00" cx="112.606299" cy="194.719528" rx="112.427559" ry="112.427559"></ellipse>
                <ellipse id="Oval" fill="#323227" cx="112.606299" cy="181.492756" rx="112.427559" ry="112.427559"></ellipse>
                <ellipse id="Oval" fill="#323227" cx="112.606299" cy="170.911339" rx="97.7458425" ry="97.7458425"></ellipse>
                <path d="M7.05666142,180.963685 C9.17294488,174.085764 15.5217953,133.215039 55.9957165,150.938913 C99.2472598,169.853197 99.644063,227.786457 99.644063,227.786457 L111.283622,227.786457 L111.283622,62.451811 L26.8968189,88.5085512 L7.05666142,180.963685 L7.05666142,180.963685 Z M113.928976,62.451811 L113.928976,227.786457 L125.568535,227.786457 C125.568535,227.786457 125.965339,169.853197 169.216882,150.938913 C209.690803,133.215039 216.304189,178.582866 218.420472,185.460787 L198.31578,88.5085512 L113.928976,62.451811 L113.928976,62.451811 Z M7.05666142,180.963685 C6.9243937,181.492756 6.79212598,181.625024 6.79212598,181.625024 L7.05666142,180.963685 L7.05666142,180.963685 Z" id="Shape" fill="#282820"></path>
                <path d="M189.321575,88.9053543 L112.606299,65.0971654 L35.8910236,88.9053543 L6.79212598,162.975276 C6.79212598,162.975276 23.0610551,128.453402 62.3445669,145.780472 C101.628079,163.107543 102.024882,215.882362 102.024882,215.882362 L112.606299,215.882362 L123.187717,215.882362 C123.187717,215.882362 123.58452,163.107543 162.868031,145.780472 C202.151543,128.453402 218.420472,162.975276 218.420472,162.975276 L189.321575,88.9053543 L189.321575,88.9053543 Z" id="Shape" fill="#000000"></path>
                <path d="M58.3765354,151.071181 C49.3823307,147.10315 41.5785354,146.441811 34.7006142,147.764488 C33.5102047,148.954898 32.5843307,150.277575 31.6584567,151.73252 C23.590126,165.62063 31.9229921,185.460787 50.3082047,196.174472 C65.7835276,205.036409 83.3751339,204.639606 93.2952126,195.909937 C89.1949134,180.037811 79.8039055,160.462189 58.3765354,151.071181 L58.3765354,151.071181 Z" id="Shape" fill="#FFFFFF"></path>
                <path d="M74.2486614,160.329921 C68.2966142,154.906945 60.7573543,151.73252 54.0117008,149.748504 C46.3401732,153.716535 41.1817323,161.652598 41.1817323,170.911339 C41.1817323,184.005843 51.8954173,194.719528 64.9899213,194.719528 C75.0422677,194.719528 83.6396693,188.502945 87.0786299,179.641008 C83.771937,172.234016 79.4071024,164.959291 74.2486614,160.329921 L74.2486614,160.329921 Z" id="Shape" fill="#9D9B75"></path>
                <path d="M74.2486614,160.329921 C70.0160945,156.494157 64.9899213,153.716535 59.963748,151.73252 C52.1599528,153.981071 46.4724409,161.123528 46.4724409,169.588661 C46.4724409,179.773276 54.8053071,188.106142 64.9899213,188.106142 C74.3809291,188.106142 82.0524567,181.22822 83.2428661,172.234016 C80.5975118,167.604646 77.687622,163.372079 74.2486614,160.329921 L74.2486614,160.329921 Z" id="Shape" fill="#838162"></path>
                <ellipse id="Oval" fill="#FFFFFF" cx="58.3765354" cy="160.329921" rx="7.93606299" ry="7.93606299"></ellipse>
                <ellipse id="Oval" fill="#FFFFFF" cx="51.101811" cy="172.895354" rx="4.62937008" ry="4.62937008"></ellipse>
                <path d="M190.511984,147.764488 C183.766331,146.441811 175.830268,147.10315 166.836063,151.071181 C145.408693,160.462189 136.017685,180.037811 131.785118,195.909937 C141.705197,204.507339 159.296803,205.036409 174.772126,196.174472 C193.157339,185.593055 201.490205,165.752898 193.421874,151.73252 C192.628268,150.277575 191.570126,148.954898 190.511984,147.764488 L190.511984,147.764488 Z" id="Shape" fill="#FFFFFF"></path>
                <path d="M169.87822,149.219433 C164.322976,151.071181 158.635465,154.113339 153.609291,159.007244 C145.673228,166.678772 140.911591,173.424425 137.869433,178.979669 C141.176126,188.106142 149.905795,194.719528 160.222677,194.719528 C173.317181,194.719528 184.030866,184.005843 184.030866,170.911339 C184.030866,161.255795 178.211087,152.922929 169.87822,149.219433 L169.87822,149.219433 Z" id="Shape" fill="#9D9B75"></path>
                <path d="M163.793906,151.73252 C160.222677,153.584268 156.783717,155.832819 153.609291,159.007244 C147.92178,164.562488 143.953748,169.588661 140.911591,173.953496 C142.895606,182.021827 150.170331,188.106142 158.9,188.106142 C169.084614,188.106142 177.41748,179.773276 177.41748,169.588661 C177.41748,160.99126 171.597701,153.848803 163.793906,151.73252 L163.793906,151.73252 Z" id="Shape" fill="#838162"></path>
                <path d="M157.445055,155.700551 C156.122378,156.758693 154.799701,157.816835 153.609291,159.007244 C150.831669,161.784866 148.318583,164.43022 146.334567,166.811039 C147.789512,168.53052 149.905795,169.588661 152.286614,169.588661 C156.651449,169.588661 160.222677,166.017433 160.222677,161.652598 C160.222677,159.27178 159.164535,157.155496 157.445055,155.700551 L157.445055,155.700551 Z" id="Shape" fill="#FFFFFF"></path>
                <path d="M112.606299,246.303937 C105.992913,246.303937 100.702205,247.229811 100.702205,248.949291 C100.702205,250.668772 105.992913,254.24 112.606299,254.24 C119.219685,254.24 124.510394,250.668772 124.510394,248.949291 C124.510394,247.229811 119.219685,246.303937 112.606299,246.303937 L112.606299,246.303937 Z" id="Shape" fill="#806363"></path>
                <path d="M112.606299,54.515748 L88.7981102,66.1553071 C88.7981102,66.1553071 112.606299,66.9489134 112.606299,137.712142 C112.606299,66.9489134 136.414488,66.1553071 136.414488,66.1553071 L112.606299,54.515748 L112.606299,54.515748 Z M58.6410709,77.1335276 C58.6410709,77.1335276 79.0102992,72.3718898 96.3373701,125.808047 C95.6760315,123.691764 79.2748346,61.9227402 79.2748346,61.9227402 L58.6410709,77.1335276 L58.6410709,77.1335276 Z M145.937764,62.0550079 C145.937764,62.0550079 129.404299,123.824031 128.875228,125.940315 C146.202299,72.5041575 166.571528,77.2657953 166.571528,77.2657953 L145.937764,62.0550079 L145.937764,62.0550079 Z" id="Shape" fill="#FFFFFF"></path>
                <path d="M141.043858,210.591654 C129.668835,210.591654 117.76474,217.469575 112.606299,227.389654 C107.447858,217.601843 95.5437638,210.591654 84.1687402,210.591654 C69.2224882,210.591654 57.0538583,222.760283 57.0538583,237.706535 C57.0538583,252.652787 69.2224882,264.821417 84.1687402,264.821417 C95.5437638,264.821417 107.447858,257.943496 112.606299,248.023417 C117.76474,257.811228 129.668835,264.821417 141.043858,264.821417 C155.99011,264.821417 168.15874,252.652787 168.15874,237.706535 C168.15874,222.760283 155.99011,210.591654 141.043858,210.591654 L141.043858,210.591654 Z" id="Shape" fill="#59594F"></path>
                <g id="Эллипс_14_копия_4" opacity="0.2" transform="translate(63.667244, 223.818425)" fill="#FFFFFF">
                    <path d="M3.30669291,6.61338583 C1.45494488,6.61338583 0,8.06833071 0,9.92007874 C0,11.7718268 1.45494488,13.2267717 3.30669291,13.2267717 C5.15844094,13.2267717 6.61338583,11.7718268 6.61338583,9.92007874 C6.61338583,8.06833071 5.15844094,6.61338583 3.30669291,6.61338583 L3.30669291,6.61338583 Z M12.5654331,14.5494488 C10.713685,14.5494488 9.25874016,16.0043937 9.25874016,17.8561417 C9.25874016,19.7078898 10.713685,21.1628346 12.5654331,21.1628346 C14.4171811,21.1628346 15.872126,19.7078898 15.872126,17.8561417 C15.872126,16.0043937 14.4171811,14.5494488 12.5654331,14.5494488 L12.5654331,14.5494488 Z M12.5654331,3.9680315 C13.6235748,3.9680315 14.5494488,3.04215748 14.5494488,1.98401575 C14.5494488,0.925874016 13.6235748,0 12.5654331,0 C11.5072913,0 10.5814173,0.925874016 10.5814173,1.98401575 C10.5814173,3.04215748 11.5072913,3.9680315 12.5654331,3.9680315 L12.5654331,3.9680315 Z M93.2487402,10.5814173 C91.3969921,10.5814173 89.9420472,12.0363622 89.9420472,13.8881102 C89.9420472,15.7398583 91.3969921,17.1948031 93.2487402,17.1948031 C95.1004882,17.1948031 96.5554331,15.7398583 96.5554331,13.8881102 C96.5554331,12.0363622 95.1004882,10.5814173 93.2487402,10.5814173 L93.2487402,10.5814173 Z M85.9740157,3.9680315 C84.5190709,3.9680315 83.3286614,5.15844094 83.3286614,6.61338583 C83.3286614,8.06833071 84.5190709,9.25874016 85.9740157,9.25874016 C87.4289606,9.25874016 88.6193701,8.06833071 88.6193701,6.61338583 C88.6193701,5.15844094 87.4289606,3.9680315 85.9740157,3.9680315 L85.9740157,3.9680315 Z" id="Shape"></path>
                </g>
                <path d="M112.606299,210.591654 C105.992913,210.591654 100.702205,212.840205 100.702205,217.205039 C100.702205,221.569874 105.992913,230.431811 112.606299,230.431811 C119.219685,230.431811 124.510394,221.569874 124.510394,217.205039 C124.510394,212.840205 119.219685,210.591654 112.606299,210.591654 L112.606299,210.591654 Z" id="Shape" fill="#806363"></path>
                <path d="M218.288205,121.840016 L218.420472,121.972283 C218.420472,121.972283 205.061433,57.5579055 201.225669,41.2889764 C197.389906,25.0200472 190.511984,31.1043622 180.062835,46.579685 C175.433465,53.3253386 171.862236,59.0128504 169.216882,63.2454173 C152.55115,53.4576063 133.240063,47.9023622 112.606299,47.9023622 C91.9725354,47.9023622 72.6614488,53.4576063 55.9957165,63.2454173 C53.3503622,59.0128504 49.7791339,53.3253386 45.1497638,46.579685 C34.7006142,31.1043622 27.8226929,25.0200472 23.9869291,41.2889764 C20.1511654,57.5579055 6.79212598,121.972283 6.79212598,121.972283 L6.9243937,121.840016 C2.55955906,133.876378 0.178740157,146.838614 0.178740157,160.329921 C0.178740157,222.36348 50.5727402,280.693543 112.606299,280.693543 C174.639858,280.693543 225.033858,222.36348 225.033858,160.329921 C225.033858,146.838614 222.653039,133.876378 218.288205,121.840016 L218.288205,121.840016 Z M112.606299,268.789449 C58.5088031,268.789449 14.728189,225.008835 14.728189,170.911339 C14.728189,116.813843 58.5088031,73.0332283 112.606299,73.0332283 C166.703795,73.0332283 210.484409,116.813843 210.484409,170.911339 C210.484409,225.008835 166.703795,268.789449 112.606299,268.789449 L112.606299,268.789449 Z" id="Shape" fill="#FFEA00"></path>
                <path d="M29.2776378,49.2250394 C27.5581575,59.1451181 17.3735433,103.454803 17.3735433,103.454803 C17.3735433,103.454803 27.4258898,89.037622 31.9229921,83.6146457 C36.4200945,78.1916693 43.8270866,70.387874 43.8270866,70.387874 C43.8270866,70.387874 30.9971181,39.3049606 29.2776378,49.2250394 L29.2776378,49.2250394 Z" id="Shape" fill="#D7C823"></path>
                <path d="M194.612283,49.2250394 C192.892803,39.3049606 180.062835,70.387874 180.062835,70.387874 C180.062835,70.387874 187.469827,78.1916693 191.966929,83.6146457 C196.464031,89.037622 206.516378,103.454803 206.516378,103.454803 C206.516378,103.454803 196.331764,59.1451181 194.612283,49.2250394 L194.612283,49.2250394 Z" id="Shape" fill="#D7C823"></path>
            </g>
        </g>
    </g>
</svg>